<?xml version="1.0" encoding="UTF-8" standalone="no"?>
<!-- Generator: Adobe Illustrator 26.3.1, SVG Export Plug-In . SVG Version: 6.00 Build 0)  -->

<svg
   version="1.1"
   id="图层_1"
   x="0px"
   y="0px"
   viewBox="0 0 200 200"
   style="enable-background:new 0 0 200 200;"
   xml:space="preserve"
   sodipodi:docname="kubuds_logo.svg"
   inkscape:version="1.3.2 (091e20e, 2023-11-25, custom)"
   inkscape:export-filename="kubuds_logo.png"
   inkscape:export-xdpi="96"
   inkscape:export-ydpi="96"
   xmlns:inkscape="http://www.inkscape.org/namespaces/inkscape"
   xmlns:sodipodi="http://sodipodi.sourceforge.net/DTD/sodipodi-0.dtd"
   xmlns="http://www.w3.org/2000/svg"
   xmlns:svg="http://www.w3.org/2000/svg"><defs
   id="defs9" /><sodipodi:namedview
   id="namedview9"
   pagecolor="#ffffff"
   bordercolor="#000000"
   borderopacity="0.25"
   inkscape:showpageshadow="2"
   inkscape:pageopacity="0.0"
   inkscape:pagecheckerboard="0"
   inkscape:deskcolor="#d1d1d1"
   inkscape:zoom="5.5932146"
   inkscape:cx="113.53042"
   inkscape:cy="114.15618"
   inkscape:window-width="1920"
   inkscape:window-height="1001"
   inkscape:window-x="-9"
   inkscape:window-y="-9"
   inkscape:window-maximized="1"
   inkscape:current-layer="图层_1" />
<style
   type="text/css"
   id="style1">
	.st0{fill:#FFFFFF;}
	.st1{fill:#2097D3;}
	.st2{fill:#231815;}
</style>
<g
   id="g1"
   inkscape:export-filename="logos\kubuds_en.svg"
   inkscape:export-xdpi="150"
   inkscape:export-ydpi="150">
	<rect
   class="st0"
   width="200"
   height="200"
   id="rect1" />
</g>
<g
   id="g9"
   transform="translate(-2.7812895,0.505689)"
   inkscape:export-filename="logos\kubuds_en.png"
   inkscape:export-xdpi="500"
   inkscape:export-ydpi="500">
	<g
   id="g4">
		<path
   class="st1"
   d="m 47.21,88.15 c -2.7,6.39 -9.35,8.71 -11.2,9.24 3.45,2.17 8.08,1.32 10.46,-1.98 1.59,-2.21 1.77,-4.96 0.74,-7.26 z"
   id="path1" />
		<g
   id="g3">
			<path
   class="st1"
   d="m 41.04,90.45 c -4.03,1.03 -5.07,5.73 -5.23,6.63 0.82,-0.23 2.94,-0.9 5.18,-2.34 -0.44,-1.71 -0.24,-3.24 0.05,-4.29 z"
   id="path2" />
			<path
   class="st1"
   d="m 41.9,90.3 c -0.16,0.02 -0.31,0.04 -0.46,0.07 -0.29,0.99 -0.53,2.5 -0.14,4.18 2.14,-1.43 4.35,-3.55 5.62,-6.63 -0.7,0.93 -2.13,2.05 -5.02,2.38 z"
   id="path3" />
		</g>
	</g>
	<g
   id="g8"
   style="fill:#4d485d;fill-opacity:1">
		<polygon
   class="st2"
   points="31.36,89.11 27.49,89.11 27.49,109.72 31.36,109.72 31.36,101.06 32.97,101.06 42.65,109.72 48.52,109.72 34.74,97.4 31.36,97.38 "
   id="polygon4"
   style="fill:#4d485d;fill-opacity:1" />
		<path
   class="st2"
   d="m 68.03,99.47 c 0,1.36 -0.04,2.5 -0.13,3.39 -0.08,0.83 -0.22,1.48 -0.43,1.95 -0.17,0.39 -0.4,0.66 -0.69,0.84 -0.34,0.2 -0.81,0.34 -1.39,0.41 -0.68,0.08 -1.53,0.12 -2.54,0.12 h -3.98 c -1,0 -1.86,-0.04 -2.54,-0.12 -0.59,-0.07 -1.05,-0.2 -1.39,-0.41 -0.3,-0.18 -0.52,-0.45 -0.69,-0.84 -0.2,-0.47 -0.35,-1.12 -0.43,-1.95 -0.09,-0.89 -0.13,-2.03 -0.13,-3.39 V 88.92 h -3.88 v 10.55 c 0,2.07 0.13,3.78 0.37,5.09 0.27,1.41 0.75,2.52 1.45,3.31 0.72,0.81 1.71,1.37 2.95,1.66 1.13,0.26 2.57,0.4 4.28,0.4 h 3.98 c 1.71,0 3.15,-0.13 4.28,-0.4 1.24,-0.29 2.23,-0.85 2.95,-1.66 0.7,-0.79 1.19,-1.9 1.45,-3.31 0.25,-1.31 0.37,-3.02 0.37,-5.09 V 88.92 h -3.88 v 10.55 z"
   id="path4"
   style="fill:#4d485d;fill-opacity:1" />
		<path
   class="st2"
   d="m 94.84,98.34 c 0.2,-0.19 0.39,-0.42 0.54,-0.67 0.55,-0.86 0.82,-1.95 0.82,-3.22 0,-1.4 -0.23,-2.48 -0.7,-3.29 C 95,90.3 94.22,89.69 93.2,89.35 92.3,89.06 91.14,88.91 89.78,88.91 H 75.44 v 20.61 h 13.41 c 1.43,0 2.65,-0.08 3.62,-0.25 1.06,-0.18 1.93,-0.51 2.59,-0.99 0.69,-0.51 1.19,-1.22 1.47,-2.11 0.26,-0.8 0.39,-1.82 0.39,-3.02 0,-1.45 -0.32,-2.69 -0.96,-3.68 -0.3,-0.45 -0.67,-0.83 -1.12,-1.13 z m -5.99,7.51 h -9.53 v -5.37 h 8.96 c 0.76,0 1.48,0.02 2.13,0.07 0.58,0.04 1.09,0.15 1.52,0.33 0.34,0.14 0.6,0.36 0.79,0.69 0.21,0.34 0.32,0.9 0.32,1.6 0,0.75 -0.06,1.34 -0.19,1.73 -0.09,0.28 -0.22,0.46 -0.41,0.57 -0.26,0.15 -0.66,0.25 -1.17,0.3 -0.64,0.05 -1.45,0.08 -2.42,0.08 z m 3.14,-9.66 c -0.2,0.26 -0.54,0.41 -1.03,0.47 -0.68,0.09 -1.59,0.13 -2.68,0.13 H 79.32 V 92.6 h 10.47 c 0.8,0 1.43,0.05 1.87,0.14 0.31,0.07 0.41,0.18 0.47,0.3 0.06,0.12 0.21,0.49 0.21,1.42 -0.01,1.17 -0.25,1.6 -0.35,1.73 z"
   id="path5"
   style="fill:#4d485d;fill-opacity:1" />
		<path
   class="st2"
   d="m 117.96,99.47 c 0,1.36 -0.04,2.5 -0.13,3.39 -0.08,0.83 -0.22,1.48 -0.43,1.95 -0.17,0.39 -0.4,0.66 -0.69,0.84 -0.34,0.2 -0.81,0.34 -1.39,0.41 -0.68,0.08 -1.53,0.12 -2.54,0.12 h -3.98 c -1,0 -1.86,-0.04 -2.54,-0.12 -0.59,-0.07 -1.05,-0.2 -1.39,-0.41 -0.3,-0.18 -0.52,-0.45 -0.69,-0.84 -0.2,-0.46 -0.35,-1.12 -0.43,-1.94 -0.09,-0.89 -0.13,-2.03 -0.13,-3.39 V 88.92 h -3.88 v 10.55 c 0,2.07 0.13,3.78 0.37,5.09 0.27,1.41 0.76,2.52 1.45,3.31 0.72,0.81 1.71,1.37 2.95,1.66 1.13,0.26 2.57,0.4 4.28,0.4 h 3.98 c 1.71,0 3.15,-0.13 4.28,-0.4 1.24,-0.29 2.23,-0.85 2.95,-1.66 0.7,-0.79 1.19,-1.9 1.45,-3.31 0.25,-1.31 0.37,-3.02 0.37,-5.09 V 88.92 h -3.88 v 10.55 z"
   id="path6"
   style="fill:#4d485d;fill-opacity:1" />
		<path
   class="st2"
   d="m 145.34,90.81 v 0 c -0.72,-0.77 -1.72,-1.29 -2.96,-1.55 -1.12,-0.23 -2.55,-0.35 -4.25,-0.35 h -12.37 v 20.61 h 12.36 c 1.71,0 3.15,-0.13 4.27,-0.39 1.24,-0.28 2.23,-0.82 2.95,-1.61 0.7,-0.77 1.19,-1.84 1.46,-3.2 0.25,-1.26 0.37,-2.9 0.37,-4.87 v -0.49 c 0,-2.04 -0.13,-3.71 -0.37,-4.97 -0.26,-1.35 -0.75,-2.43 -1.46,-3.18 z m -2.03,8.17 v 0.49 c 0,1.59 -0.07,2.86 -0.21,3.77 -0.12,0.78 -0.34,1.37 -0.64,1.71 -0.28,0.31 -0.72,0.53 -1.32,0.63 -0.74,0.13 -1.76,0.2 -3.01,0.2 h -8.49 v -13.1 h 8.49 c 1.02,0 1.88,0.03 2.57,0.09 0.59,0.05 1.07,0.17 1.41,0.36 0.29,0.15 0.5,0.39 0.66,0.73 0.2,0.43 0.34,1.04 0.42,1.83 0.07,0.85 0.12,1.96 0.12,3.29 z"
   id="path7"
   style="fill:#4d485d;fill-opacity:1" />
		<path
   class="st2"
   d="m 172.24,100.5 v 0 c -0.19,-0.85 -0.59,-1.54 -1.19,-2.05 -0.58,-0.5 -1.39,-0.85 -2.48,-1.05 -0.97,-0.19 -2.26,-0.29 -3.85,-0.32 l -6.56,-0.1 c -1.17,-0.02 -2.1,-0.06 -2.76,-0.14 -0.76,-0.08 -1.07,-0.24 -1.17,-0.3 -0.14,-0.09 -0.22,-0.21 -0.26,-0.39 -0.08,-0.34 -0.12,-0.81 -0.12,-1.41 0,-0.7 0.06,-1.25 0.17,-1.62 0.07,-0.23 0.18,-0.37 0.37,-0.47 0.2,-0.1 0.62,-0.24 1.44,-0.3 0.76,-0.06 1.8,-0.08 3.09,-0.08 h 4.6 c 1.06,0 1.97,0.01 2.69,0.02 0.59,0.01 1.06,0.1 1.36,0.24 0.21,0.1 0.36,0.31 0.47,0.65 0.04,0.14 0.09,0.31 0.12,0.51 l 0.06,0.36 h 3.89 l -0.05,-0.47 c -0.07,-0.68 -0.18,-1.28 -0.33,-1.76 -0.31,-1 -0.85,-1.76 -1.61,-2.26 -0.7,-0.46 -1.64,-0.76 -2.77,-0.88 -1.03,-0.11 -2.32,-0.17 -3.84,-0.17 h -4.71 c -1.69,0 -3.09,0.08 -4.17,0.25 -1.17,0.18 -2.11,0.51 -2.79,0.98 -0.73,0.5 -1.24,1.21 -1.51,2.09 -0.24,0.77 -0.36,1.75 -0.36,2.9 0,1.05 0.09,1.94 0.26,2.66 0.2,0.83 0.61,1.52 1.23,2.03 0.58,0.48 1.42,0.83 2.48,1.04 0.96,0.19 2.24,0.3 3.8,0.32 l 6.11,0.1 c 1.29,0.02 2.31,0.07 3.05,0.13 0.85,0.07 1.19,0.22 1.31,0.28 0.15,0.08 0.23,0.19 0.28,0.39 0.09,0.35 0.13,0.86 0.13,1.52 0,0.76 -0.05,1.37 -0.14,1.81 -0.06,0.3 -0.18,0.5 -0.37,0.64 -0.17,0.12 -0.52,0.28 -1.28,0.38 -0.72,0.09 -1.73,0.13 -3,0.13 h -5.04 c -1.15,0 -2.1,-0.03 -2.84,-0.08 -0.59,-0.04 -1.06,-0.16 -1.34,-0.35 -0.23,-0.15 -0.41,-0.44 -0.52,-0.86 -0.06,-0.21 -0.1,-0.47 -0.14,-0.78 l -0.05,-0.38 h -3.88 l 0.04,0.47 c 0.07,0.78 0.19,1.45 0.36,2.01 0.32,1.06 0.86,1.88 1.62,2.44 0.72,0.53 1.68,0.89 2.84,1.06 1.06,0.15 2.37,0.23 3.91,0.23 h 5.15 c 1.7,0 3.1,-0.1 4.17,-0.31 1.16,-0.23 2.08,-0.62 2.73,-1.16 0.67,-0.57 1.13,-1.32 1.36,-2.25 0.2,-0.81 0.31,-1.82 0.31,-2.99 -0.02,-1.08 -0.1,-1.99 -0.27,-2.71 z"
   id="path8"
   style="fill:#4d485d;fill-opacity:1" />
	</g>
</g>
</svg>
