<?xml version="1.0" encoding="UTF-8" standalone="no"?>
<!-- Generator: Adobe Illustrator 26.3.1, SVG Export Plug-In . SVG Version: 6.00 Build 0)  -->

<svg
   version="1.1"
   id="图层_1"
   x="0px"
   y="0px"
   viewBox="0 0 200 200"
   style="enable-background:new 0 0 200 200;"
   xml:space="preserve"
   sodipodi:docname="苦芽logo.svg"
   inkscape:version="1.3.2 (091e20e, 2023-11-25, custom)"
   xmlns:inkscape="http://www.inkscape.org/namespaces/inkscape"
   xmlns:sodipodi="http://sodipodi.sourceforge.net/DTD/sodipodi-0.dtd"
   xmlns="http://www.w3.org/2000/svg"
   xmlns:svg="http://www.w3.org/2000/svg"><defs
   id="defs8" /><sodipodi:namedview
   id="namedview8"
   pagecolor="#ffffff"
   bordercolor="#000000"
   borderopacity="0.25"
   inkscape:showpageshadow="2"
   inkscape:pageopacity="0.0"
   inkscape:pagecheckerboard="0"
   inkscape:deskcolor="#d1d1d1"
   inkscape:zoom="3.955"
   inkscape:cx="99.873578"
   inkscape:cy="100"
   inkscape:window-width="1920"
   inkscape:window-height="1001"
   inkscape:window-x="-9"
   inkscape:window-y="-9"
   inkscape:window-maximized="1"
   inkscape:current-layer="图层_1" />
<style
   type="text/css"
   id="style1">
	.st0{fill:#FFFFFF;}
</style>
<rect
   class="st0"
   width="200"
   height="200"
   id="rect1" />
<g
   id="g8"
   style="fill:#4d485d;fill-opacity:1"
   inkscape:export-filename="logos\kubuds_ch.png"
   inkscape:export-xdpi="500"
   inkscape:export-ydpi="500">
	<g
   id="g2"
   style="fill:#4d485d;fill-opacity:1">
		<polygon
   points="36.05,74.62 18.26,74.62 18.26,65.42 36.05,65.42 36.05,59.6 46.21,59.6 46.21,65.42 66.34,65.42 66.34,59.6     76.67,59.6 76.67,65.42 94.55,65.42 94.55,74.62 76.67,74.62 76.67,81.13 66.34,81.13 66.34,74.62 46.21,74.62 46.21,81.13     36.05,81.13   "
   id="polygon1"
   style="fill:#4d485d;fill-opacity:1" />
		<polygon
   points="61.61,83.14 61.61,77.66 51.02,77.66 51.02,83.14 18.13,83.14 18.13,92.77 51.02,92.77 51.02,101.62     61.61,101.62 61.61,92.77 94.68,92.77 94.68,83.14   "
   id="polygon2"
   style="fill:#4d485d;fill-opacity:1" />
		<path
   d="M79.35,111v20.05H40.46c-3.86,0-6.99-3.14-6.99-6.99V111H79.35 M88.69,101.66H24.12v22.4c0,9.02,7.32,16.34,16.34,16.34    h48.23V101.66L88.69,101.66z"
   id="path2"
   style="fill:#4d485d;fill-opacity:1" />
	</g>
	<g
   id="g7"
   style="fill:#4d485d;fill-opacity:1">
		<g
   id="g3"
   style="fill:#4d485d;fill-opacity:1">
			<polygon
   points="123.38,74.62 105.58,74.62 105.58,65.42 123.38,65.42 123.38,59.6 133.53,59.6 133.53,65.42 153.66,65.42      153.66,59.6 163.99,59.6 163.99,65.42 181.87,65.42 181.87,74.62 163.99,74.62 163.99,81.13 153.66,81.13 153.66,74.62      133.53,74.62 133.53,81.13 123.38,81.13    "
   id="polygon3"
   style="fill:#4d485d;fill-opacity:1" />
		</g>
		<g
   id="g4"
   style="fill:#4d485d;fill-opacity:1">
			
				<rect
   x="110.67"
   y="83.14"
   transform="matrix(-1 -1.224647e-16 1.224647e-16 -1 290.5667 175.567)"
   width="69.22"
   height="9.29"
   id="rect3"
   style="fill:#4d485d;fill-opacity:1" />
		</g>
		<g
   id="g5"
   style="fill:#4d485d;fill-opacity:1">
			<path
   d="M179.86,106.78h-52.82c-3.86,0-6.99-3.14-6.99-6.99v-4.61h-9.34v4.61c0,9.02,7.31,16.34,16.34,16.34h52.82V106.78z"
   id="path4"
   style="fill:#4d485d;fill-opacity:1" />
		</g>
		<g
   id="g6"
   style="fill:#4d485d;fill-opacity:1">
			<path
   d="M115.24,140.17l-2.06-9.11c21.85-4.94,32.05-20.35,32.15-20.51l7.87,5.03C152.71,116.35,140.99,134.35,115.24,140.17z"
   id="path5"
   style="fill:#4d485d;fill-opacity:1" />
		</g>
		<polygon
   points="160.12,84.46 160.12,131.05 145.4,131.05 145.4,140.4 169.46,140.4 169.46,84.46   "
   id="polygon6"
   style="fill:#4d485d;fill-opacity:1" />
	</g>
</g>
</svg>
