<?xml version="1.0" encoding="UTF-8" standalone="no"?>
<!-- Generator: Adobe Illustrator 26.3.1, SVG Export Plug-In . SVG Version: 6.00 Build 0)  -->

<svg
   version="1.1"
   id="图层_1"
   x="0px"
   y="0px"
   viewBox="0 0 200 200"
   style="enable-background:new 0 0 200 200;"
   xml:space="preserve"
   sodipodi:docname="kubuds icon.svg"
   inkscape:version="1.3.2 (091e20e, 2023-11-25, custom)"
   inkscape:export-filename="kubuds logo_icon1_black_blue.png"
   inkscape:export-xdpi="96"
   inkscape:export-ydpi="96"
   xmlns:inkscape="http://www.inkscape.org/namespaces/inkscape"
   xmlns:sodipodi="http://sodipodi.sourceforge.net/DTD/sodipodi-0.dtd"
   xmlns="http://www.w3.org/2000/svg"
   xmlns:svg="http://www.w3.org/2000/svg"><defs
   id="defs5" /><sodipodi:namedview
   id="namedview5"
   pagecolor="#ffffff"
   bordercolor="#000000"
   borderopacity="0.25"
   inkscape:showpageshadow="2"
   inkscape:pageopacity="0.0"
   inkscape:pagecheckerboard="0"
   inkscape:deskcolor="#d1d1d1"
   inkscape:zoom="4.5649876"
   inkscape:cx="95.071453"
   inkscape:cy="81.380288"
   inkscape:window-width="1920"
   inkscape:window-height="1001"
   inkscape:window-x="-9"
   inkscape:window-y="-9"
   inkscape:window-maximized="1"
   inkscape:current-layer="g5" />
<style
   type="text/css"
   id="style1">
	.st0{fill:#2097D3;}
	.st1{fill:#231815;}
	.st2{fill:#FFFFFF;}
</style>
<g
   id="g5">
	<g
   id="g4">
		<path
   class="st0"
   d="M126.25,68.67c-7.71,18.77-26.66,25.55-31.94,27.11c9.84,6.38,23.04,3.88,29.83-5.8    C128.68,83.5,129.2,75.42,126.25,68.67z"
   id="path1" />
		<g
   id="g3">
			<path
   class="st0"
   d="M108.65,75.43c-11.5,3.03-14.46,16.83-14.93,19.47c2.34-0.67,8.38-2.65,14.78-6.85     C107.26,83.01,107.84,78.52,108.65,75.43z"
   id="path2" />
			<path
   class="st0"
   d="M111.1,74.97c-0.45,0.05-0.89,0.12-1.32,0.2c-0.82,2.91-1.52,7.33-0.39,12.27     c6.11-4.19,12.41-10.41,16.04-19.45C123.43,70.74,119.35,74.02,111.1,74.97z"
   id="path3" />
		</g>
	</g>
	<polygon
   class="st1"
   points="81.06,95.77 81.06,71.5 70,71.5 70,132 81.06,132 81.06,106.57 85.64,106.57 113.25,132 130,132    90.69,95.83  "
   id="polygon4"
   style="fill:#4d485d;fill-opacity:1" />
</g>
</svg>
